# xmcd
#
# Track frame offsets: 
#        150
#        20464
#        29255
#        41170
#        52180
#        63631
#        74905
#        88943
#        103300
#        115678
#        132119
#        144941
#
# Disc length: 2042 seconds
#
# Revision: 0
# Processed by: cddbd v1.5.2PL0 Copyright (c) Steve Scherf et al.
# Submitted via: ExactAudioCopy v1.0b1
#
DISCID=b707f80c
DTITLE=The Country Gentlemen - Songs of the Pioneers
DYEAR=1965
DGENRE=Bluegrass
TTITLE0=Streets Of Laredo
TTITLE1=The Timber Trail
TTITLE2=Lander Valley
TTITLE3=I Still Do
TTITLE4=In The Arms Of An Old Rockin' Chair
TTITLE5=Oklahoma In The Morning
TTITLE6=Tumbling Tumbleweeds
TTITLE7=Teardrops In My Heart
TTITLE8=Cool Water
TTITLE9=The Land Beyond The Sun
TTITLE10=In A Little Spanish Mission
TTITLE11=Dust Devils
EXTD=
EXTT0=
EXTT1=
EXTT2=
EXTT3=
EXTT4=
EXTT5=
EXTT6=
EXTT7=
EXTT8=
EXTT9=
EXTT10=
EXTT11=
PLAYORDER=
